<svg width="267" height="240" viewBox="0 0 267 240" fill="none" xmlns="http://www.w3.org/2000/svg">
    <path d="M138.23 138.794C147.646 138.718 157.062 138.714 166.479 138.782C165.498 143.027 165.047 147.061 165.989 151.367C167.321 157.457 170.861 162.842 176.107 166.184C181.721 169.716 188.493 170.856 194.939 169.353C200.955 167.963 206.433 163.769 209.653 158.494C213.357 152.427 213.754 145.733 212.166 138.936C219.27 138.748 226.408 138.858 233.517 138.83L233.508 239.969L138.272 240L138.262 218.182C138.258 214.532 138.603 210.472 138.021 206.887C137.886 206.059 137.627 205.41 137.022 204.814C133.746 201.578 130.002 205.801 126.835 206.979C125.268 207.562 123.27 207.709 121.605 207.674C117.605 207.589 113.771 206.08 111.02 203.074C108.413 200.224 107.229 196.341 107.411 192.502C107.59 188.711 109.342 184.632 112.223 182.144C116.579 178.458 122.649 177.63 127.82 180.015C129.922 180.965 132.26 182.638 134.613 182.711C135.694 182.744 136.697 182.384 137.455 181.594C138.096 180.926 138.113 179.743 138.187 178.851C138.563 174.277 138.295 169.499 138.283 164.906L138.23 138.794Z" fill="#DBA757"/>
    <path d="M77.4067 106.87C78.6514 106.782 79.8685 106.714 81.1127 106.879C85.3198 107.399 89.1259 109.654 91.6257 113.107C95.1067 117.898 95.2704 124.367 92.0352 129.331C91.0719 130.823 88.968 132.679 88.7682 134.439C88.6464 135.431 88.9595 136.426 89.6261 137.165C90.4504 138.073 92.7173 138.417 92.7539 138.422C92.7539 138.422 100.857 138.547 104.79 138.541C112.787 138.495 120.784 138.532 128.781 138.65C128.691 149.194 128.664 159.738 128.699 170.282C124.871 169.41 121.166 169.068 117.284 169.859C110.823 171.176 105.479 175.107 101.914 180.655C98.6018 185.808 97.6592 192.008 98.9399 197.98C100.288 204.264 103.853 209.828 109.284 213.287C115.329 217.137 121.84 217.431 128.641 215.885L128.647 239.984L118.238 239.967L33.7714 239.975L33.8558 179.411C33.8824 165.688 33.6634 151.946 33.8584 138.227L55.3194 138.288C55.3194 138.288 62.9142 138.672 66.4333 138.137C67.3743 137.994 68.0579 137.738 68.6189 136.898C70.6088 133.914 67.2485 131.019 65.9368 128.523C65.3782 127.462 65.1089 126.275 64.8982 125.1C64.1169 120.839 65.0778 116.441 67.5629 112.906C69.9639 109.438 73.3668 107.596 77.4067 106.87Z" fill="#DBA757"/>
    <path d="M138.537 0.0990409C140.981 1.82221 143.193 4.51565 145.31 6.66381L187.854 49.7543L239.42 101.788C248.407 110.813 257.763 119.589 266.343 129.007C253.568 128.666 240.709 128.929 227.925 128.906L212.97 128.879C210.04 128.874 207.022 128.723 204.102 128.975C202.481 129.114 201.057 129.488 200.005 130.832C198.978 132.145 198.895 133.393 199.137 134.98C201.772 139.445 204.363 142.359 203.682 148.08C203.239 151.792 200.797 155.934 197.858 158.141C194.673 160.531 190.018 161.362 186.137 160.635C182.284 159.914 178.735 157.473 176.575 154.178C173.738 149.847 173.73 144.124 176.302 139.666C177.406 137.752 179.222 135.639 179.569 133.41C179.703 132.552 179.666 131.466 179.041 130.789C178.166 129.844 176.199 129.57 175.004 129.427C170.956 128.942 166.532 129.29 162.449 129.294C154.408 129.234 146.366 129.298 138.327 129.484C138.276 119.501 138.292 109.516 138.37 99.5328C141.438 100.835 144.444 100.938 147.695 100.456C154.23 99.4884 160.18 96.2727 164.098 90.8226C167.767 85.717 169.207 78.925 168.172 72.7277C167.125 66.2137 163.52 60.3996 158.171 56.5988C152.023 52.1878 145.718 51.6935 138.476 52.9156L138.537 0.0990409Z" fill="#DBA757"/>
    <path d="M128.608 0C129.103 0.854453 128.843 45.4006 128.841 50.3686C128.839 54.6128 128.356 60.1214 129.023 64.1674C129.155 64.9675 129.484 65.7531 130.071 66.3248C133.021 69.2026 137.377 63.4815 140.125 62.3539C141.567 61.7611 143.303 61.6572 144.853 61.7021C148.805 61.817 152.607 63.7033 155.306 66.5818C158.064 69.4748 159.521 73.386 159.334 77.3946C159.108 81.4678 157.177 85.4974 154.06 88.1124C150.19 91.3591 143.433 92.8087 138.822 90.2872C136.77 89.1648 135.126 86.603 132.626 86.4996C131.603 86.4575 130.559 86.8843 129.827 87.5984C129.144 88.265 128.878 89.0332 128.764 89.966C128.254 94.1729 128.658 98.8154 128.653 103.078L128.613 129.616L101.821 129.768C103.718 125.11 103.703 119.126 102.26 114.346C100.456 108.368 96.2017 103.557 90.7531 100.666C85.0876 97.6605 78.6019 96.9172 72.4694 98.8408C65.5338 101.017 60.5918 105.598 57.2667 112.011C54.515 117.716 54.3177 123.196 55.7892 129.306L0 129.42C23.2078 105.601 46.9813 82.3032 70.4271 58.7228L107.768 21.1263C114.722 14.0925 121.528 6.90675 128.608 0Z" fill="#DBA757"/>
</svg>
