<svg width="226" height="48" viewBox="0 0 226 48" fill="none" xmlns="http://www.w3.org/2000/svg">
<path d="M27.6392 27.7588C29.522 27.7435 31.4049 27.7427 33.2876 27.7564C33.0916 28.6053 33.0011 29.4123 33.1894 30.2734C33.4558 31.4914 34.1637 32.5684 35.2126 33.2368C36.335 33.9432 37.6895 34.1712 38.9784 33.8707C40.1813 33.5926 41.2766 32.7539 41.9205 31.6988C42.6611 30.4854 42.7402 29.1466 42.4226 27.7872C43.8432 27.7496 45.2706 27.7717 46.692 27.7661L46.6899 47.9938L27.6477 48L27.6453 43.6363C27.6446 42.9065 27.7136 42.0943 27.5972 41.3774C27.5702 41.2119 27.5186 41.082 27.3978 40.9628C26.7427 40.3155 25.994 41.1601 25.3607 41.3959C25.0474 41.5125 24.6478 41.5419 24.3149 41.5348C23.515 41.5178 22.7483 41.216 22.1984 40.6148C21.677 40.0449 21.4403 39.2683 21.4766 38.5004C21.5125 37.7422 21.8629 36.9264 22.4389 36.4289C23.3098 35.6916 24.5235 35.526 25.5574 36.003C25.9779 36.193 26.4453 36.5276 26.9158 36.5421C27.132 36.5488 27.3327 36.4768 27.4842 36.3189C27.6125 36.1852 27.616 35.9486 27.6306 35.7701C27.7059 34.8554 27.6522 33.8998 27.6499 32.9812L27.6392 27.7588Z" fill="#F8EDDD"/>
<path d="M27.6392 27.7588C29.522 27.7435 31.4049 27.7427 33.2876 27.7564C33.0916 28.6053 33.0011 29.4123 33.1894 30.2734C33.4558 31.4914 34.1637 32.5684 35.2126 33.2368C36.335 33.9432 37.6895 34.1712 38.9784 33.8707C40.1813 33.5926 41.2766 32.7539 41.9205 31.6988C42.6611 30.4854 42.7402 29.1466 42.4226 27.7872C43.8432 27.7496 45.2706 27.7717 46.692 27.7661L46.6899 47.9938L27.6477 48L27.6453 43.6363C27.6446 42.9065 27.7136 42.0943 27.5972 41.3774C27.5702 41.2119 27.5186 41.082 27.3978 40.9628C26.7427 40.3155 25.994 41.1601 25.3607 41.3959C25.0474 41.5125 24.6478 41.5419 24.3149 41.5348C23.515 41.5178 22.7483 41.216 22.1984 40.6148C21.677 40.0449 21.4403 39.2683 21.4766 38.5004C21.5125 37.7422 21.8629 36.9264 22.4389 36.4289C23.3098 35.6916 24.5235 35.526 25.5574 36.003C25.9779 36.193 26.4453 36.5276 26.9158 36.5421C27.132 36.5488 27.3327 36.4768 27.4842 36.3189C27.6125 36.1852 27.616 35.9486 27.6306 35.7701C27.7059 34.8554 27.6522 33.8998 27.6499 32.9812L27.6392 27.7588Z" fill="url(#paint0_linear_42_4324)"/>
<path d="M15.4776 21.374C15.7264 21.3563 15.9696 21.3427 16.2183 21.3758C17.0596 21.4798 17.8208 21.9307 18.3207 22.6213C19.0167 23.5796 19.0494 24.8734 18.4026 25.8661C18.2099 26.1646 17.7893 26.5357 17.7493 26.8878C17.725 27.0861 17.7875 27.2853 17.9209 27.4331C18.087 27.6161 18.5463 27.6844 18.5463 27.6844C18.5548 27.6846 20.1686 27.7094 20.9529 27.7083C22.5519 27.699 24.151 27.7063 25.7498 27.7299C25.732 29.8387 25.7266 31.9477 25.7335 34.0565C24.9681 33.882 24.2273 33.8135 23.4511 33.9719C22.1591 34.2352 21.0904 35.0214 20.3775 36.131C19.7153 37.1616 19.5271 38.4016 19.7832 39.596C20.0527 40.8527 20.7653 41.9656 21.8513 42.6574C23.0599 43.4275 24.3621 43.4863 25.722 43.177L25.7231 47.9968L23.6419 47.9933L6.75237 47.9949L6.76923 35.8823C6.77456 33.1376 6.73103 30.3893 6.77003 27.6454L11.0612 27.6577C11.0691 27.6581 12.5813 27.7342 13.2832 27.6274C13.4714 27.5987 13.608 27.5476 13.7202 27.3795C14.1181 26.7828 13.4461 26.2038 13.1839 25.7047C13.0722 25.4923 13.0184 25.255 12.9762 25.02C12.82 24.1678 13.0122 23.2881 13.509 22.5812C13.9891 21.8876 14.6698 21.5191 15.4776 21.374Z" fill="#F8EDDD"/>
<path d="M15.4776 21.374C15.7264 21.3563 15.9696 21.3427 16.2183 21.3758C17.0596 21.4798 17.8208 21.9307 18.3207 22.6213C19.0167 23.5796 19.0494 24.8734 18.4026 25.8661C18.2099 26.1646 17.7893 26.5357 17.7493 26.8878C17.725 27.0861 17.7875 27.2853 17.9209 27.4331C18.087 27.6161 18.5463 27.6844 18.5463 27.6844C18.5548 27.6846 20.1686 27.7094 20.9529 27.7083C22.5519 27.699 24.151 27.7063 25.7498 27.7299C25.732 29.8387 25.7266 31.9477 25.7335 34.0565C24.9681 33.882 24.2273 33.8135 23.4511 33.9719C22.1591 34.2352 21.0904 35.0214 20.3775 36.131C19.7153 37.1616 19.5271 38.4016 19.7832 39.596C20.0527 40.8527 20.7653 41.9656 21.8513 42.6574C23.0599 43.4275 24.3621 43.4863 25.722 43.177L25.7231 47.9968L23.6419 47.9933L6.75237 47.9949L6.76923 35.8823C6.77456 33.1376 6.73103 30.3893 6.77003 27.6454L11.0612 27.6577C11.0691 27.6581 12.5813 27.7342 13.2832 27.6274C13.4714 27.5987 13.608 27.5476 13.7202 27.3795C14.1181 26.7828 13.4461 26.2038 13.1839 25.7047C13.0722 25.4923 13.0184 25.255 12.9762 25.02C12.82 24.1678 13.0122 23.2881 13.509 22.5812C13.9891 21.8876 14.6698 21.5191 15.4776 21.374Z" fill="url(#paint1_linear_42_4324)"/>
<path d="M27.7005 0.0198081C28.189 0.364423 28.6314 0.903116 29.0546 1.33276L37.5617 9.95087L47.8725 20.3576C49.6693 22.1626 51.5399 23.9177 53.2555 25.8013C50.701 25.7333 48.1301 25.7859 45.574 25.7813L42.5837 25.7759C41.9978 25.7748 41.3943 25.7447 40.8105 25.7949C40.4863 25.8228 40.2016 25.8975 39.9913 26.1664C39.786 26.429 39.7691 26.6786 39.8174 26.996C40.3443 27.889 40.8626 28.4719 40.7264 29.616C40.638 30.3584 40.1494 31.1868 39.5618 31.6281C38.925 32.1063 37.9944 32.2723 37.2183 32.1271C36.4479 31.9829 35.738 31.4946 35.3062 30.8355C34.7389 29.9694 34.7375 28.8248 35.2519 27.9331C35.4726 27.5505 35.8357 27.1278 35.9052 26.682C35.9318 26.5104 35.9245 26.2932 35.7994 26.1579C35.6245 25.9687 35.2313 25.9141 34.9923 25.8854C34.1828 25.7883 33.2981 25.8579 32.4816 25.8589C30.8739 25.8469 29.266 25.8595 27.6587 25.8969C27.6486 23.9001 27.6513 21.9033 27.667 19.9066C28.2804 20.1671 28.8817 20.1877 29.5317 20.0913C30.8385 19.8977 32.0279 19.2545 32.8113 18.1645C33.5451 17.1434 33.8332 15.785 33.6262 14.5455C33.4168 13.2427 32.6958 12.0799 31.6263 11.3198C30.397 10.4376 29.1364 10.3387 27.6884 10.5831L27.7005 0.0198081Z" fill="#F8EDDD"/>
<path d="M27.7005 0.0198081C28.189 0.364423 28.6314 0.903116 29.0546 1.33276L37.5617 9.95087L47.8725 20.3576C49.6693 22.1626 51.5399 23.9177 53.2555 25.8013C50.701 25.7333 48.1301 25.7859 45.574 25.7813L42.5837 25.7759C41.9978 25.7748 41.3943 25.7447 40.8105 25.7949C40.4863 25.8228 40.2016 25.8975 39.9913 26.1664C39.786 26.429 39.7691 26.6786 39.8174 26.996C40.3443 27.889 40.8626 28.4719 40.7264 29.616C40.638 30.3584 40.1494 31.1868 39.5618 31.6281C38.925 32.1063 37.9944 32.2723 37.2183 32.1271C36.4479 31.9829 35.738 31.4946 35.3062 30.8355C34.7389 29.9694 34.7375 28.8248 35.2519 27.9331C35.4726 27.5505 35.8357 27.1278 35.9052 26.682C35.9318 26.5104 35.9245 26.2932 35.7994 26.1579C35.6245 25.9687 35.2313 25.9141 34.9923 25.8854C34.1828 25.7883 33.2981 25.8579 32.4816 25.8589C30.8739 25.8469 29.266 25.8595 27.6587 25.8969C27.6486 23.9001 27.6513 21.9033 27.667 19.9066C28.2804 20.1671 28.8817 20.1877 29.5317 20.0913C30.8385 19.8977 32.0279 19.2545 32.8113 18.1645C33.5451 17.1434 33.8332 15.785 33.6262 14.5455C33.4168 13.2427 32.6958 12.0799 31.6263 11.3198C30.397 10.4376 29.1364 10.3387 27.6884 10.5831L27.7005 0.0198081Z" fill="url(#paint2_linear_42_4324)"/>
<path d="M25.7153 0C25.8143 0.172676 25.7623 9.08023 25.7619 10.0737C25.7616 10.9226 25.6649 12.0243 25.7983 12.8335C25.8246 12.9935 25.8903 13.1506 26.0075 13.265C26.5975 13.8406 27.4684 12.6964 28.0178 12.4708C28.3064 12.3522 28.6536 12.3315 28.9636 12.3404C29.7537 12.3634 30.514 12.7406 31.0536 13.3164C31.6051 13.895 31.8965 14.6772 31.8591 15.4789C31.8139 16.2936 31.4278 17.0995 30.8045 17.6225C30.0307 18.2719 28.6794 18.5618 27.7575 18.0574C27.3471 17.833 27.0186 17.3206 26.5187 17.2999C26.3142 17.2915 26.1055 17.3769 25.9591 17.5197C25.8225 17.653 25.7693 17.8066 25.7466 17.9932C25.6446 18.8346 25.7254 19.7631 25.7244 20.6156L25.7161 25.9231L20.3593 25.9536C20.7385 25.022 20.7355 23.8251 20.4471 22.8692C20.0863 21.6736 19.2354 20.7114 18.1459 20.1333C17.0131 19.5321 15.7165 19.3835 14.4904 19.7682C13.1035 20.2033 12.1154 21.1196 11.4506 22.4021C10.9003 23.5433 10.8609 24.6392 11.1551 25.8613L0 25.884C4.64045 21.1203 9.39395 16.4607 14.082 11.7446L21.5481 4.22527C22.9385 2.81848 24.2996 1.38137 25.7153 0Z" fill="#F8EDDD"/>
<path d="M25.7153 0C25.8143 0.172676 25.7623 9.08023 25.7619 10.0737C25.7616 10.9226 25.6649 12.0243 25.7983 12.8335C25.8246 12.9935 25.8903 13.1506 26.0075 13.265C26.5975 13.8406 27.4684 12.6964 28.0178 12.4708C28.3064 12.3522 28.6536 12.3315 28.9636 12.3404C29.7537 12.3634 30.514 12.7406 31.0536 13.3164C31.6051 13.895 31.8965 14.6772 31.8591 15.4789C31.8139 16.2936 31.4278 17.0995 30.8045 17.6225C30.0307 18.2719 28.6794 18.5618 27.7575 18.0574C27.3471 17.833 27.0186 17.3206 26.5187 17.2999C26.3142 17.2915 26.1055 17.3769 25.9591 17.5197C25.8225 17.653 25.7693 17.8066 25.7466 17.9932C25.6446 18.8346 25.7254 19.7631 25.7244 20.6156L25.7161 25.9231L20.3593 25.9536C20.7385 25.022 20.7355 23.8251 20.4471 22.8692C20.0863 21.6736 19.2354 20.7114 18.1459 20.1333C17.0131 19.5321 15.7165 19.3835 14.4904 19.7682C13.1035 20.2033 12.1154 21.1196 11.4506 22.4021C10.9003 23.5433 10.8609 24.6392 11.1551 25.8613L0 25.884C4.64045 21.1203 9.39395 16.4607 14.082 11.7446L21.5481 4.22527C22.9385 2.81848 24.2996 1.38137 25.7153 0Z" fill="url(#paint3_linear_42_4324)"/>
<path d="M70.6096 15.4161C72.1059 15.4161 73.4198 15.7971 74.5512 16.559C75.6826 17.321 76.5314 18.3619 77.0971 19.6814L74.9617 20.9356C74.1405 18.9286 72.6899 17.9249 70.6096 17.9249C69.5694 17.9249 68.7298 18.1852 68.0911 18.7055C67.4525 19.2258 67.1334 19.932 67.1334 20.8239C67.1334 21.6787 67.4345 22.3295 68.0367 22.7756C68.6572 23.2401 69.6972 23.7047 71.1568 24.1692L72.2791 24.5315C72.8996 24.7731 73.2375 24.9035 73.2922 24.9221C73.8761 25.1451 74.5148 25.4514 75.2082 25.8416C75.7009 26.1204 76.1939 26.5479 76.6866 27.124C77.3253 27.7744 77.6443 28.7502 77.6443 30.0511C77.6443 31.7607 77.0333 33.1267 75.8107 34.1488C74.5698 35.1523 72.9728 35.6541 71.0201 35.6541C69.2318 35.6541 67.699 35.2357 66.4216 34.3994C65.1624 33.5446 64.2774 32.3646 63.7664 30.8593L65.9562 29.577C66.6861 31.9371 68.3924 33.1175 71.075 33.1175C72.3706 33.1175 73.365 32.8477 74.0584 32.3088C74.7701 31.7699 75.1263 31.036 75.1263 30.1069C75.1263 29.1963 74.7793 28.4994 74.0858 28.0163C73.4654 27.5888 72.3067 27.0961 70.6096 26.5386L68.7755 25.9251C68.374 25.7579 67.8447 25.5163 67.1878 25.2004C66.5492 24.8659 66.084 24.5313 65.7921 24.1969C64.9892 23.3048 64.5875 22.2179 64.5875 20.9356C64.5875 19.2259 65.1714 17.8877 66.3393 16.9214C67.5072 15.9178 68.9307 15.4161 70.6096 15.4161Z" fill="#F8EDDD"/>
<path d="M70.6096 15.4161C72.1059 15.4161 73.4198 15.7971 74.5512 16.559C75.6826 17.321 76.5314 18.3619 77.0971 19.6814L74.9617 20.9356C74.1405 18.9286 72.6899 17.9249 70.6096 17.9249C69.5694 17.9249 68.7298 18.1852 68.0911 18.7055C67.4525 19.2258 67.1334 19.932 67.1334 20.8239C67.1334 21.6787 67.4345 22.3295 68.0367 22.7756C68.6572 23.2401 69.6972 23.7047 71.1568 24.1692L72.2791 24.5315C72.8996 24.7731 73.2375 24.9035 73.2922 24.9221C73.8761 25.1451 74.5148 25.4514 75.2082 25.8416C75.7009 26.1204 76.1939 26.5479 76.6866 27.124C77.3253 27.7744 77.6443 28.7502 77.6443 30.0511C77.6443 31.7607 77.0333 33.1267 75.8107 34.1488C74.5698 35.1523 72.9728 35.6541 71.0201 35.6541C69.2318 35.6541 67.699 35.2357 66.4216 34.3994C65.1624 33.5446 64.2774 32.3646 63.7664 30.8593L65.9562 29.577C66.6861 31.9371 68.3924 33.1175 71.075 33.1175C72.3706 33.1175 73.365 32.8477 74.0584 32.3088C74.7701 31.7699 75.1263 31.036 75.1263 30.1069C75.1263 29.1963 74.7793 28.4994 74.0858 28.0163C73.4654 27.5888 72.3067 27.0961 70.6096 26.5386L68.7755 25.9251C68.374 25.7579 67.8447 25.5163 67.1878 25.2004C66.5492 24.8659 66.084 24.5313 65.7921 24.1969C64.9892 23.3048 64.5875 22.2179 64.5875 20.9356C64.5875 19.2259 65.1714 17.8877 66.3393 16.9214C67.5072 15.9178 68.9307 15.4161 70.6096 15.4161Z" fill="url(#paint4_linear_42_4324)"/>
<path fill-rule="evenodd" clip-rule="evenodd" d="M175.192 15.4161C177.966 15.4161 180.311 16.401 182.228 18.3708C184.162 20.3222 185.129 22.7103 185.129 25.5351C185.129 28.3413 184.162 30.7294 182.228 32.6993C180.311 34.6692 177.966 35.6541 175.192 35.6541C172.419 35.6541 170.074 34.6691 168.158 32.6993C166.242 30.7108 165.284 28.3227 165.284 25.5351C165.284 22.7103 166.242 20.3222 168.158 18.3708C170.074 16.401 172.419 15.4161 175.192 15.4161ZM175.192 17.9249C173.094 17.925 171.333 18.6592 169.91 20.1273C168.504 21.5954 167.802 23.398 167.802 25.5351C167.802 27.6536 168.504 29.4562 169.91 30.9429C171.333 32.3924 173.094 33.1175 175.192 33.1175C177.309 33.1175 179.061 32.3924 180.448 30.9429C181.872 29.4562 182.583 27.6536 182.583 25.5351C182.583 23.3794 181.872 21.5768 180.448 20.1273C179.061 18.6592 177.309 17.9249 175.192 17.9249Z" fill="#F8EDDD"/>
<path fill-rule="evenodd" clip-rule="evenodd" d="M175.192 15.4161C177.966 15.4161 180.311 16.401 182.228 18.3708C184.162 20.3222 185.129 22.7103 185.129 25.5351C185.129 28.3413 184.162 30.7294 182.228 32.6993C180.311 34.6692 177.966 35.6541 175.192 35.6541C172.419 35.6541 170.074 34.6691 168.158 32.6993C166.242 30.7108 165.284 28.3227 165.284 25.5351C165.284 22.7103 166.242 20.3222 168.158 18.3708C170.074 16.401 172.419 15.4161 175.192 15.4161ZM175.192 17.9249C173.094 17.925 171.333 18.6592 169.91 20.1273C168.504 21.5954 167.802 23.398 167.802 25.5351C167.802 27.6536 168.504 29.4562 169.91 30.9429C171.333 32.3924 173.094 33.1175 175.192 33.1175C177.309 33.1175 179.061 32.3924 180.448 30.9429C181.872 29.4562 182.583 27.6536 182.583 25.5351C182.583 23.3794 181.872 21.5768 180.448 20.1273C179.061 18.6592 177.309 17.9249 175.192 17.9249Z" fill="url(#paint5_linear_42_4324)"/>
<path d="M85.2607 24.0575H94.5675V15.7784H97.086V35.2917H94.5675V26.5109H85.2607V35.2917H82.7152V15.7784H85.2607V24.0575Z" fill="#F8EDDD"/>
<path d="M85.2607 24.0575H94.5675V15.7784H97.086V35.2917H94.5675V26.5109H85.2607V35.2917H82.7152V15.7784H85.2607V24.0575Z" fill="url(#paint6_linear_42_4324)"/>
<path fill-rule="evenodd" clip-rule="evenodd" d="M118.705 35.2917H115.996L114.435 30.9152H105.813L104.252 35.2917H101.543L108.687 15.7784H111.561L118.705 35.2917ZM106.688 28.4899H113.56L110.11 18.8726L106.688 28.4899Z" fill="#F8EDDD"/>
<path fill-rule="evenodd" clip-rule="evenodd" d="M118.705 35.2917H115.996L114.435 30.9152H105.813L104.252 35.2917H101.543L108.687 15.7784H111.561L118.705 35.2917ZM106.688 28.4899H113.56L110.11 18.8726L106.688 28.4899Z" fill="url(#paint7_linear_42_4324)"/>
<path fill-rule="evenodd" clip-rule="evenodd" d="M130.82 15.7784C132.463 15.7784 133.868 16.3732 135.036 17.5626C136.204 18.7333 136.787 20.1549 136.788 21.8274C136.788 23.0911 136.413 24.2437 135.665 25.2844C134.899 26.3436 133.95 27.0775 132.818 27.4863L137.335 35.2917H134.515L130.218 27.821H125.701V35.2917H123.156V15.7784H130.82ZM125.701 25.4792H130.82C131.769 25.4792 132.572 25.1264 133.229 24.4203C133.904 23.7141 134.242 22.8495 134.242 21.8274C134.242 20.8054 133.904 19.9507 133.229 19.2631C132.572 18.557 131.769 18.2037 130.82 18.2037H125.701V25.4792Z" fill="#F8EDDD"/>
<path fill-rule="evenodd" clip-rule="evenodd" d="M130.82 15.7784C132.463 15.7784 133.868 16.3732 135.036 17.5626C136.204 18.7333 136.787 20.1549 136.788 21.8274C136.788 23.0911 136.413 24.2437 135.665 25.2844C134.899 26.3436 133.95 27.0775 132.818 27.4863L137.335 35.2917H134.515L130.218 27.821H125.701V35.2917H123.156V15.7784H130.82ZM125.701 25.4792H130.82C131.769 25.4792 132.572 25.1264 133.229 24.4203C133.904 23.7141 134.242 22.8495 134.242 21.8274C134.242 20.8054 133.904 19.9507 133.229 19.2631C132.572 18.557 131.769 18.2037 130.82 18.2037H125.701V25.4792Z" fill="url(#paint8_linear_42_4324)"/>
<path d="M151.058 26.0927L157.135 15.7784H160.009V35.2917H157.49V20.0437L151.222 30.6641H150.894L144.625 20.0714V35.2917H142.08V15.7784H144.954L151.058 26.0927Z" fill="#F8EDDD"/>
<path d="M151.058 26.0927L157.135 15.7784H160.009V35.2917H157.49V20.0437L151.222 30.6641H150.894L144.625 20.0714V35.2917H142.08V15.7784H144.954L151.058 26.0927Z" fill="url(#paint9_linear_42_4324)"/>
<path d="M202.287 30.3299V15.7784H204.833V35.2917H202.779L192.925 20.7126V35.2917H190.38V15.7784H192.432L202.287 30.3299Z" fill="#F8EDDD"/>
<path d="M202.287 30.3299V15.7784H204.833V35.2917H202.779L192.925 20.7126V35.2917H190.38V15.7784H192.432L202.287 30.3299Z" fill="url(#paint10_linear_42_4324)"/>
<path d="M217.335 24.9221L222.535 15.7784H225.382L218.594 27.4028V35.2917H216.048V27.3751L209.287 15.7784H212.134L217.335 24.9221Z" fill="#F8EDDD"/>
<path d="M217.335 24.9221L222.535 15.7784H225.382L218.594 27.4028V35.2917H216.048V27.3751L209.287 15.7784H212.134L217.335 24.9221Z" fill="url(#paint11_linear_42_4324)"/>
<defs>
<linearGradient id="paint0_linear_42_4324" x1="-50.8587" y1="9.45455" x2="-26.5296" y2="144.627" gradientUnits="userSpaceOnUse">
<stop offset="0.0290466" stop-color="#FFDDA8"/>
<stop offset="1" stop-color="#BA893F"/>
</linearGradient>
<linearGradient id="paint1_linear_42_4324" x1="-50.8587" y1="9.45455" x2="-26.5296" y2="144.627" gradientUnits="userSpaceOnUse">
<stop offset="0.0290466" stop-color="#FFDDA8"/>
<stop offset="1" stop-color="#BA893F"/>
</linearGradient>
<linearGradient id="paint2_linear_42_4324" x1="-50.8587" y1="9.45455" x2="-26.5296" y2="144.627" gradientUnits="userSpaceOnUse">
<stop offset="0.0290466" stop-color="#FFDDA8"/>
<stop offset="1" stop-color="#BA893F"/>
</linearGradient>
<linearGradient id="paint3_linear_42_4324" x1="-50.8587" y1="9.45455" x2="-26.5296" y2="144.627" gradientUnits="userSpaceOnUse">
<stop offset="0.0290466" stop-color="#FFDDA8"/>
<stop offset="1" stop-color="#BA893F"/>
</linearGradient>
<linearGradient id="paint4_linear_42_4324" x1="-50.8587" y1="9.45455" x2="-26.5296" y2="144.627" gradientUnits="userSpaceOnUse">
<stop offset="0.0290466" stop-color="#FFDDA8"/>
<stop offset="1" stop-color="#BA893F"/>
</linearGradient>
<linearGradient id="paint5_linear_42_4324" x1="-50.8587" y1="9.45455" x2="-26.5296" y2="144.627" gradientUnits="userSpaceOnUse">
<stop offset="0.0290466" stop-color="#FFDDA8"/>
<stop offset="1" stop-color="#BA893F"/>
</linearGradient>
<linearGradient id="paint6_linear_42_4324" x1="-50.8587" y1="9.45455" x2="-26.5296" y2="144.627" gradientUnits="userSpaceOnUse">
<stop offset="0.0290466" stop-color="#FFDDA8"/>
<stop offset="1" stop-color="#BA893F"/>
</linearGradient>
<linearGradient id="paint7_linear_42_4324" x1="-50.8587" y1="9.45455" x2="-26.5296" y2="144.627" gradientUnits="userSpaceOnUse">
<stop offset="0.0290466" stop-color="#FFDDA8"/>
<stop offset="1" stop-color="#BA893F"/>
</linearGradient>
<linearGradient id="paint8_linear_42_4324" x1="-50.8587" y1="9.45455" x2="-26.5296" y2="144.627" gradientUnits="userSpaceOnUse">
<stop offset="0.0290466" stop-color="#FFDDA8"/>
<stop offset="1" stop-color="#BA893F"/>
</linearGradient>
<linearGradient id="paint9_linear_42_4324" x1="-50.8587" y1="9.45455" x2="-26.5296" y2="144.627" gradientUnits="userSpaceOnUse">
<stop offset="0.0290466" stop-color="#FFDDA8"/>
<stop offset="1" stop-color="#BA893F"/>
</linearGradient>
<linearGradient id="paint10_linear_42_4324" x1="-50.8587" y1="9.45455" x2="-26.5296" y2="144.627" gradientUnits="userSpaceOnUse">
<stop offset="0.0290466" stop-color="#FFDDA8"/>
<stop offset="1" stop-color="#BA893F"/>
</linearGradient>
<linearGradient id="paint11_linear_42_4324" x1="-50.8587" y1="9.45455" x2="-26.5296" y2="144.627" gradientUnits="userSpaceOnUse">
<stop offset="0.0290466" stop-color="#FFDDA8"/>
<stop offset="1" stop-color="#BA893F"/>
</linearGradient>
</defs>
</svg>
