<svg width="197" height="286" viewBox="0 0 197 286" fill="none" xmlns="http://www.w3.org/2000/svg">
    <path d="M103.395 0C130.309 0 153.109 7.11054 169.311 21.4106C177.54 28.4256 183.827 36.7621 188.198 46.4076C192.582 56.0668 195.024 67.0215 195.563 79.2842L195.591 79.9183L194.959 79.9857L149.616 85.0985L148.832 85.1806L148.86 84.3969C149.912 58.7782 145.839 39.5529 136.76 26.6153C132.24 20.0455 126.504 15.0961 119.57 11.8044C112.636 8.49971 104.503 6.85281 95.1281 6.85263C81.8398 6.85263 71.5178 10.4824 64.044 17.6729C60.4427 21.2609 57.7438 25.5225 55.9361 30.4861C54.1284 35.4371 53.2122 41.0923 53.2122 47.4328C53.2123 49.4434 53.8849 54.3681 55.1393 60.2493C55.2471 60.7074 55.342 61.1659 55.4498 61.6375C55.4498 61.6375 55.4503 61.6664 55.463 61.7049V61.7213C55.5828 62.202 55.6912 62.6964 55.8113 63.1901C56.4182 65.766 57.013 67.8703 57.4312 69.3001C57.8897 70.3655 58.4295 71.4854 59.0363 72.6451C59.468 73.4545 61.5339 76.8676 62.1546 77.7447L62.7198 78.5416C68.6151 86.7706 75.8475 93.7866 84.4408 99.5874L86.1544 100.68C87.8539 101.745 90.1053 103.136 92.7754 104.713C93.8276 105.347 96.393 106.87 100.183 109.001C107.131 112.914 114.106 116.584 117.843 118.527L123.738 121.604C138.887 129.617 151.165 136.82 160.567 143.228C162.456 144.469 164.291 145.777 166.058 147.166C168.462 148.577 181.164 161.426 186.21 169.361L186.871 170.358C188.192 172.408 189.393 174.542 190.459 176.741C194.802 185.725 196.961 195.978 196.961 207.485C196.961 222.553 192.995 236.044 185.022 247.956C181.164 253.919 176.389 259.236 170.696 263.931C164.989 268.625 158.364 272.685 150.823 276.111C135.997 282.722 118.282 286 97.7091 286C65.7909 286 41.2796 277.985 24.2951 261.838H24.2803C7.55219 245.42 -0.501837 222.553 0.0241841 193.319V192.725L0.632066 192.659L45.9735 187.545L46.7555 187.464L46.7276 188.246C46.332 197.167 46.4613 205.447 47.1005 213.085L61.1475 203.407V182.11H73.0866V195.182L100.849 176.056V176.044L100.855 176.049L100.862 176.047V176.054L132.572 197.693H111.544L100.862 189.751L48.7746 225.982C50.9588 238.025 54.714 248.115 60.0188 256.266C65.0777 263.888 71.3897 269.611 78.9847 273.428C86.5662 277.232 95.4441 279.146 105.589 279.146C111.052 279.146 116.084 278.606 120.684 277.541C125.554 276.421 129.954 274.695 133.893 272.388C134.432 272.078 134.958 271.74 135.47 271.403C136.853 270.673 138.192 269.921 139.492 269.16C138.12 269.925 136.708 270.677 135.247 271.404C137.675 269.839 139.914 268.018 141.965 265.981L142.773 265.156C145.255 262.553 147.36 259.693 149.1 256.577C150.761 253.593 152.078 250.374 153.059 246.921L101.997 211.403L91.3181 219.342H70.292L101.989 197.713V197.693L102 197.703L102.017 197.693V197.713L155.08 234.271C155.14 233.094 155.172 231.895 155.172 230.676C155.172 221.267 153.381 212.899 149.823 205.576L149.088 204.127L148.341 202.766C147.571 201.42 146.739 200.114 145.839 198.84V198.812C139.822 189.719 132.145 182.19 122.755 176.213H122.742C118.156 173.057 112.813 169.724 106.716 166.19C102.062 163.505 98.0137 161.292 95.3022 159.835C91.6332 157.852 88.5023 156.221 86.1281 155.006C85.5345 154.696 84.4012 154.103 83.0526 153.375C81.69 152.647 80.0974 151.796 78.546 150.96C75.8482 149.517 73.2848 148.14 72.3539 147.613C70.4923 146.588 67.646 145.01 64.3282 143.095C59.8764 140.546 53.9806 137.023 47.0331 132.558C42.1226 129.252 37.5884 125.488 33.4199 121.266C29.2516 117.043 25.448 112.348 22.0081 107.209H21.9933C18.6749 102.015 16.179 96.3479 14.5197 90.1965C12.8471 84.0451 12.0225 77.4072 12.0224 70.2711C12.0227 48.5651 20.5387 31.4603 37.5502 19.0086C54.5076 6.32785 76.4822 0.000170808 103.395 0Z" fill="#03292B"/>
    <path d="M100.997 257.918H89.4029V246.323H100.997V257.918Z" fill="#03292B"/>
    <path d="M114.581 257.918H102.987V246.323H114.581V257.918Z" fill="#03292B"/>
    <path d="M114.581 244.354H102.987V232.759H114.581V244.354Z" fill="#03292B"/>
    <path d="M100.997 244.352H89.4029V232.756H100.997V244.352Z" fill="#03292B"/>
</svg>
